<svg width="200" height="40" viewBox="0 0 200 40" fill="none" xmlns="http://www.w3.org/2000/svg">
<path d="M108.086 22.5935L85.4847 1.52686V37.2454H92.18V17.2978L114.781 38.3382V2.52611H108.086V22.5935Z" fill="white"/>
<path d="M56.1321 1.18262C52.4235 1.18188 48.7981 2.28092 45.7141 4.34074C42.6302 6.40057 40.2264 9.32866 38.8067 12.7547C37.387 16.1808 37.0151 19.9509 37.7382 23.5883C38.4612 27.2257 40.2467 30.5669 42.8688 33.1895C45.4909 35.8122 48.8318 37.5983 52.469 38.3221C56.1063 39.0458 59.8765 38.6747 63.3028 37.2557C66.7291 35.8367 69.6577 33.4335 71.7182 30.3499C73.7786 27.2664 74.8784 23.6412 74.8784 19.9326C74.8734 14.962 72.8969 10.1963 69.3825 6.68116C65.868 3.16603 61.1027 1.18856 56.1321 1.18262ZM56.1321 31.9423C53.7519 31.9661 51.4182 31.282 49.4275 29.9768C47.4369 28.6717 45.8789 26.8044 44.9515 24.6121C44.0242 22.4198 43.7692 20.0014 44.219 17.6639C44.6687 15.3264 45.803 13.1753 47.4777 11.4837C49.1525 9.79212 51.2921 8.63635 53.625 8.16317C55.9578 7.68998 58.3787 7.92071 60.5802 8.82608C62.7817 9.73144 64.6644 11.2706 65.9895 13.2481C67.3145 15.2256 68.022 17.5522 68.0221 19.9326C68.0311 23.0998 66.7851 26.1417 64.5568 28.3924C62.3284 30.6432 59.2993 31.9196 56.1321 31.9423Z" fill="white"/>
<path d="M25.9824 20.2433C24.201 18.8848 21.8656 17.7882 18.3739 16.6805C11.5737 14.5248 11.5737 12.8107 11.5737 11.9761C11.5737 10.045 13.7294 8.04647 17.3335 8.04647C19.5976 8.09894 21.789 8.85644 23.6022 10.2134L24.07 10.5652L29.4704 6.91623L28.8791 6.21638C27.4037 4.63277 25.6184 3.36941 23.6342 2.50477C21.6499 1.64013 19.5091 1.19267 17.3447 1.19019C13.8716 1.19019 10.6793 2.31294 8.36265 4.31519C7.24237 5.25728 6.33702 6.42853 5.70758 7.75003C5.07814 9.07153 4.73923 10.5126 4.7137 11.9761C4.7137 15.0525 6.05726 17.6385 8.70696 19.6595C10.4884 21.018 12.8237 22.1146 16.3155 23.2224C23.1044 25.3818 23.1044 27.0921 23.1044 27.9117C23.1044 29.8429 20.9487 31.8414 17.3447 31.8414C15.0802 31.7909 12.8882 31.0332 11.076 29.6745L10.6082 29.3227L5.21145 32.9866L5.79902 33.6827C7.27445 35.2704 9.06096 36.5374 11.0473 37.4047C13.0336 38.272 15.1773 38.721 17.3447 38.7239C20.8177 38.7239 24.0101 37.6011 26.3267 35.5989C27.4475 34.6544 28.3526 33.4805 28.9808 32.1563C29.609 30.8321 29.9457 29.3885 29.9682 27.923C29.9757 24.8504 28.6321 22.2643 25.9824 20.2433Z" fill="white"/>
<path d="M144.13 1.32104C140.421 1.32104 136.796 2.42081 133.713 4.48125C130.629 6.54169 128.226 9.47026 126.807 12.8966C125.388 16.3229 125.017 20.0931 125.74 23.7304C126.464 27.3676 128.25 30.7085 130.873 33.3306C133.496 35.9527 136.837 37.7382 140.474 38.4612C144.112 39.1843 147.882 38.8124 151.308 37.3927C154.734 35.973 157.662 33.5692 159.722 30.4853C161.782 27.4014 162.881 23.7759 162.88 20.0673C162.875 15.0964 160.898 10.3305 157.382 6.81585C153.867 3.30121 149.101 1.32501 144.13 1.32104ZM144.13 32.077C141.75 32.0978 139.418 31.4111 137.429 30.1042C135.441 28.7972 133.885 26.9289 132.96 24.7363C132.035 22.5437 131.782 20.1257 132.233 17.7892C132.685 15.4527 133.82 13.303 135.496 11.6129C137.171 9.9228 139.311 8.76853 141.643 8.29658C143.976 7.82462 146.396 8.05626 148.596 8.96209C150.797 9.86791 152.679 11.4071 154.003 13.3843C155.328 15.3615 156.035 17.6876 156.035 20.0673C156.044 23.2371 154.796 26.2812 152.564 28.5324C150.333 30.7835 147.3 32.0582 144.13 32.077Z" fill="white"/>
<path d="M174.283 19.7567C176.061 21.1153 178.4 22.2118 181.892 23.3196C188.681 25.4753 188.681 27.1894 188.681 28.0127C188.681 29.9401 186.525 31.9386 182.921 31.9386C180.657 31.8862 178.466 31.1287 176.652 29.7717L176.185 29.4237L170.784 33.0689L171.379 33.7687C172.856 35.356 174.643 36.6226 176.63 37.4899C178.617 38.3571 180.761 38.8064 182.929 38.8099C186.402 38.8099 189.59 37.6871 191.911 35.6849C193.031 34.7409 193.936 33.5675 194.564 32.244C195.192 30.9205 195.529 29.4776 195.552 28.0127C195.552 24.9326 194.208 22.3466 191.555 20.3256C189.777 18.9671 187.438 17.8705 183.95 16.7627C177.161 14.5958 177.161 12.8967 177.161 12.0734C177.161 10.1422 179.313 8.14372 182.921 8.14372C185.186 8.1942 187.377 8.95189 189.19 10.3106L189.658 10.6624L195.054 7.01348L194.467 6.31363C192.991 4.72662 191.204 3.46015 189.218 2.59291C187.232 1.72567 185.088 1.27621 182.921 1.27246C179.448 1.27246 176.256 2.39522 173.939 4.39746C172.819 5.34223 171.914 6.51627 171.286 7.8404C170.657 9.16453 170.321 10.608 170.298 12.0734C170.29 15.1497 171.634 17.7358 174.283 19.7567Z" fill="white"/>
</svg>
